<svg width="19" height="22" viewBox="0 0 19 22" fill="none" xmlns="http://www.w3.org/2000/svg">
<path d="M9.5 0C4.25202 0 0 4.92339 0 11C0 17.0766 4.25202 22 9.5 22C14.748 22 19 17.0766 19 11C19 4.92339 14.748 0 9.5 0ZM15.0161 12.2419C15.0161 12.5347 14.8093 12.7742 14.5565 12.7742H11.0323V16.8548C11.0323 17.1476 10.8254 17.3871 10.5726 17.3871H8.42742C8.1746 17.3871 7.96774 17.1476 7.96774 16.8548V12.7742H4.44355C4.19073 12.7742 3.98387 12.5347 3.98387 12.2419V9.75806C3.98387 9.46532 4.19073 9.22581 4.44355 9.22581H7.96774V5.14516C7.96774 4.85242 8.1746 4.6129 8.42742 4.6129H10.5726C10.8254 4.6129 11.0323 4.85242 11.0323 5.14516V9.22581H14.5565C14.8093 9.22581 15.0161 9.46532 15.0161 9.75806V12.2419Z" fill="black"/>
</svg>
